<mxfile host="drawio-plugin" modified="2021-12-03T11:10:09.402Z" agent="5.0 (Macintosh; Intel Mac OS X 12_0_1) AppleWebKit/537.36 (KHTML, like Gecko) Chrome/89.0.4389.114 Safari/537.36" etag="oec8ndVy6JygjfDfbGxQ" version="14.7.4" type="embed"><diagram id="DnIzjtSNVaGbE5f_AneU" name="Page-1"><mxGraphModel dx="1635" dy="508" grid="1" gridSize="10" guides="1" tooltips="1" connect="1" arrows="1" fold="1" page="1" pageScale="1" pageWidth="827" pageHeight="1169" math="0" shadow="0"><root><mxCell id="0"/><mxCell id="1" parent="0"/><mxCell id="R01BoFq2kM_QBB5NmbSD-1" value="" style="rounded=0;whiteSpace=wrap;html=1;" parent="1" vertex="1"><mxGeometry x="230" y="40" width="1270" height="700" as="geometry"/></mxCell><mxCell id="R01BoFq2kM_QBB5NmbSD-40" value="" style="rounded=0;whiteSpace=wrap;html=1;" parent="1" vertex="1"><mxGeometry x="730" y="100" width="240" height="130" as="geometry"/></mxCell><mxCell id="R01BoFq2kM_QBB5NmbSD-2" value="order-service" style="text;html=1;strokeColor=none;fillColor=none;align=left;verticalAlign=bottom;whiteSpace=wrap;rounded=0;" parent="1" vertex="1"><mxGeometry x="230" y="10" width="110" height="30" as="geometry"/></mxCell><mxCell id="R01BoFq2kM_QBB5NmbSD-5" value="order_payload" style="edgeStyle=orthogonalEdgeStyle;rounded=0;orthogonalLoop=1;jettySize=auto;html=1;exitX=1;exitY=0.5;exitDx=0;exitDy=0;" parent="1" source="R01BoFq2kM_QBB5NmbSD-3" target="R01BoFq2kM_QBB5NmbSD-4" edge="1"><mxGeometry x="-0.3636" relative="1" as="geometry"><mxPoint as="offset"/></mxGeometry></mxCell><mxCell id="R01BoFq2kM_QBB5NmbSD-3" value="fe_bff" style="rounded=0;whiteSpace=wrap;html=1;" parent="1" vertex="1"><mxGeometry x="-60" y="160" width="120" height="60" as="geometry"/></mxCell><mxCell id="R01BoFq2kM_QBB5NmbSD-7" value="create_event" style="edgeStyle=orthogonalEdgeStyle;rounded=0;orthogonalLoop=1;jettySize=auto;html=1;exitX=1;exitY=0.5;exitDx=0;exitDy=0;entryX=0;entryY=0.5;entryDx=0;entryDy=0;" parent="1" source="R01BoFq2kM_QBB5NmbSD-4" target="R01BoFq2kM_QBB5NmbSD-6" edge="1"><mxGeometry relative="1" as="geometry"/></mxCell><mxCell id="R01BoFq2kM_QBB5NmbSD-4" value="order_creation&lt;br&gt;(POST /order)" style="rounded=0;whiteSpace=wrap;html=1;" parent="1" vertex="1"><mxGeometry x="280" y="160" width="120" height="60" as="geometry"/></mxCell><mxCell id="R01BoFq2kM_QBB5NmbSD-17" style="edgeStyle=orthogonalEdgeStyle;rounded=0;orthogonalLoop=1;jettySize=auto;html=1;exitX=1;exitY=0.5;exitDx=0;exitDy=0;entryX=0;entryY=0.5;entryDx=0;entryDy=0;" parent="1" source="R01BoFq2kM_QBB5NmbSD-6" target="R01BoFq2kM_QBB5NmbSD-33" edge="1"><mxGeometry relative="1" as="geometry"><mxPoint x="730" y="305" as="targetPoint"/></mxGeometry></mxCell><mxCell id="R01BoFq2kM_QBB5NmbSD-6" value="order-event" style="rounded=1;whiteSpace=wrap;html=1;arcSize=50;" parent="1" vertex="1"><mxGeometry x="540" y="290" width="120" height="30" as="geometry"/></mxCell><mxCell id="R01BoFq2kM_QBB5NmbSD-11" value="authorization_event" style="edgeStyle=orthogonalEdgeStyle;rounded=0;orthogonalLoop=1;jettySize=auto;html=1;exitX=1;exitY=0.5;exitDx=0;exitDy=0;entryX=0;entryY=0.5;entryDx=0;entryDy=0;" parent="1" source="R01BoFq2kM_QBB5NmbSD-8" target="2" edge="1"><mxGeometry x="-0.0303" relative="1" as="geometry"><mxPoint as="offset"/></mxGeometry></mxCell><mxCell id="R01BoFq2kM_QBB5NmbSD-8" value="payment_ack" style="rounded=0;whiteSpace=wrap;html=1;" parent="1" vertex="1"><mxGeometry x="280" y="290" width="120" height="60" as="geometry"/></mxCell><mxCell id="R01BoFq2kM_QBB5NmbSD-10" style="edgeStyle=orthogonalEdgeStyle;rounded=0;orthogonalLoop=1;jettySize=auto;html=1;exitX=1;exitY=0.5;exitDx=0;exitDy=0;entryX=0;entryY=0.5;entryDx=0;entryDy=0;" parent="1" source="R01BoFq2kM_QBB5NmbSD-9" target="R01BoFq2kM_QBB5NmbSD-8" edge="1"><mxGeometry relative="1" as="geometry"/></mxCell><mxCell id="R01BoFq2kM_QBB5NmbSD-15" value="payment_authorized" style="edgeLabel;html=1;align=center;verticalAlign=middle;resizable=0;points=[];" parent="R01BoFq2kM_QBB5NmbSD-10" vertex="1" connectable="0"><mxGeometry x="-0.2857" y="-3" relative="1" as="geometry"><mxPoint x="15" y="-3" as="offset"/></mxGeometry></mxCell><mxCell id="R01BoFq2kM_QBB5NmbSD-9" value="payment_provider" style="rounded=0;whiteSpace=wrap;html=1;" parent="1" vertex="1"><mxGeometry x="-60" y="280" width="120" height="60" as="geometry"/></mxCell><mxCell id="R01BoFq2kM_QBB5NmbSD-14" style="edgeStyle=orthogonalEdgeStyle;rounded=0;orthogonalLoop=1;jettySize=auto;html=1;exitX=0;exitY=0.5;exitDx=0;exitDy=0;entryX=0;entryY=0.25;entryDx=0;entryDy=0;" parent="1" source="R01BoFq2kM_QBB5NmbSD-12" target="R01BoFq2kM_QBB5NmbSD-6" edge="1"><mxGeometry relative="1" as="geometry"/></mxCell><mxCell id="R01BoFq2kM_QBB5NmbSD-16" value="shipment_success/failed" style="edgeLabel;html=1;align=center;verticalAlign=middle;resizable=0;points=[];" parent="R01BoFq2kM_QBB5NmbSD-14" vertex="1" connectable="0"><mxGeometry x="0.4322" y="3" relative="1" as="geometry"><mxPoint x="137" y="-55" as="offset"/></mxGeometry></mxCell><mxCell id="R01BoFq2kM_QBB5NmbSD-12" value="mock_shipment_status" style="rounded=0;whiteSpace=wrap;html=1;" parent="1" vertex="1"><mxGeometry x="750" y="120" width="130" height="60" as="geometry"/></mxCell><mxCell id="R01BoFq2kM_QBB5NmbSD-13" value="" style="html=1;verticalLabelPosition=bottom;align=center;labelBackgroundColor=#ffffff;verticalAlign=top;strokeWidth=2;strokeColor=#0080F0;shadow=0;dashed=0;shape=mxgraph.ios7.icons.clock;" parent="1" vertex="1"><mxGeometry x="750" y="120" width="20" height="20" as="geometry"/></mxCell><mxCell id="R01BoFq2kM_QBB5NmbSD-20" value="replicate" style="edgeStyle=orthogonalEdgeStyle;rounded=0;orthogonalLoop=1;jettySize=auto;html=1;exitX=1;exitY=0.5;exitDx=0;exitDy=0;exitPerimeter=0;entryX=1;entryY=0.5;entryDx=0;entryDy=0;entryPerimeter=0;dashed=1;" parent="1" source="R01BoFq2kM_QBB5NmbSD-18" target="R01BoFq2kM_QBB5NmbSD-19" edge="1"><mxGeometry relative="1" as="geometry"/></mxCell><mxCell id="R01BoFq2kM_QBB5NmbSD-18" value="write_node" style="shape=cylinder3;whiteSpace=wrap;html=1;boundedLbl=1;backgroundOutline=1;size=15;" parent="1" vertex="1"><mxGeometry x="1201" y="265" width="60" height="80" as="geometry"/></mxCell><mxCell id="R01BoFq2kM_QBB5NmbSD-19" value="read_node" style="shape=cylinder3;whiteSpace=wrap;html=1;boundedLbl=1;backgroundOutline=1;size=15;" parent="1" vertex="1"><mxGeometry x="1201" y="470" width="60" height="80" as="geometry"/></mxCell><mxCell id="R01BoFq2kM_QBB5NmbSD-26" style="edgeStyle=orthogonalEdgeStyle;rounded=0;orthogonalLoop=1;jettySize=auto;html=1;exitX=1;exitY=0.5;exitDx=0;exitDy=0;" parent="1" source="R01BoFq2kM_QBB5NmbSD-21" target="R01BoFq2kM_QBB5NmbSD-19" edge="1"><mxGeometry relative="1" as="geometry"/></mxCell><mxCell id="R01BoFq2kM_QBB5NmbSD-21" value="retrieve_order&lt;br&gt;(GET /order/{id})" style="rounded=0;whiteSpace=wrap;html=1;" parent="1" vertex="1"><mxGeometry x="280" y="440" width="120" height="60" as="geometry"/></mxCell><mxCell id="R01BoFq2kM_QBB5NmbSD-27" style="edgeStyle=orthogonalEdgeStyle;rounded=0;orthogonalLoop=1;jettySize=auto;html=1;exitX=1;exitY=0.5;exitDx=0;exitDy=0;entryX=0;entryY=0.5;entryDx=0;entryDy=0;entryPerimeter=0;" parent="1" source="R01BoFq2kM_QBB5NmbSD-22" target="R01BoFq2kM_QBB5NmbSD-19" edge="1"><mxGeometry relative="1" as="geometry"><mxPoint x="760" y="480" as="targetPoint"/><Array as="points"><mxPoint x="800" y="540"/><mxPoint x="800" y="510"/></Array></mxGeometry></mxCell><mxCell id="R01BoFq2kM_QBB5NmbSD-43" value="query" style="edgeLabel;html=1;align=center;verticalAlign=middle;resizable=0;points=[];" parent="R01BoFq2kM_QBB5NmbSD-27" vertex="1" connectable="0"><mxGeometry x="0.2274" relative="1" as="geometry"><mxPoint as="offset"/></mxGeometry></mxCell><mxCell id="R01BoFq2kM_QBB5NmbSD-22" value="order_search&lt;br&gt;(GET /order)" style="rounded=0;whiteSpace=wrap;html=1;" parent="1" vertex="1"><mxGeometry x="280" y="510" width="120" height="60" as="geometry"/></mxCell><mxCell id="R01BoFq2kM_QBB5NmbSD-24" style="edgeStyle=orthogonalEdgeStyle;rounded=0;orthogonalLoop=1;jettySize=auto;html=1;exitX=1;exitY=0.5;exitDx=0;exitDy=0;entryX=0;entryY=0.5;entryDx=0;entryDy=0;" parent="1" source="R01BoFq2kM_QBB5NmbSD-23" target="R01BoFq2kM_QBB5NmbSD-22" edge="1"><mxGeometry relative="1" as="geometry"/></mxCell><mxCell id="R01BoFq2kM_QBB5NmbSD-25" style="edgeStyle=orthogonalEdgeStyle;rounded=0;orthogonalLoop=1;jettySize=auto;html=1;exitX=1;exitY=0.5;exitDx=0;exitDy=0;" parent="1" source="R01BoFq2kM_QBB5NmbSD-23" target="R01BoFq2kM_QBB5NmbSD-21" edge="1"><mxGeometry relative="1" as="geometry"/></mxCell><mxCell id="R01BoFq2kM_QBB5NmbSD-23" value="fe_bff" style="rounded=0;whiteSpace=wrap;html=1;" parent="1" vertex="1"><mxGeometry x="-60" y="470" width="120" height="60" as="geometry"/></mxCell><mxCell id="R01BoFq2kM_QBB5NmbSD-28" value="mock update&lt;br&gt;(PUT /order/{id}/shipment)" style="rounded=0;whiteSpace=wrap;html=1;" parent="1" vertex="1"><mxGeometry x="820" y="160" width="130" height="60" as="geometry"/></mxCell><mxCell id="R01BoFq2kM_QBB5NmbSD-39" style="edgeStyle=orthogonalEdgeStyle;rounded=0;orthogonalLoop=1;jettySize=auto;html=1;exitX=1;exitY=0.5;exitDx=0;exitDy=0;entryX=1;entryY=0.5;entryDx=0;entryDy=0;" parent="1" source="R01BoFq2kM_QBB5NmbSD-32" target="R01BoFq2kM_QBB5NmbSD-40" edge="1"><mxGeometry relative="1" as="geometry"><mxPoint x="980" y="60" as="targetPoint"/></mxGeometry></mxCell><mxCell id="R01BoFq2kM_QBB5NmbSD-32" value="shipment-event" style="rounded=1;whiteSpace=wrap;html=1;arcSize=50;" parent="1" vertex="1"><mxGeometry x="1000" y="245" width="120" height="30" as="geometry"/></mxCell><mxCell id="R01BoFq2kM_QBB5NmbSD-37" value="persist" style="edgeStyle=orthogonalEdgeStyle;rounded=0;orthogonalLoop=1;jettySize=auto;html=1;exitX=1;exitY=0.5;exitDx=0;exitDy=0;entryX=0;entryY=0.5;entryDx=0;entryDy=0;entryPerimeter=0;" parent="1" source="R01BoFq2kM_QBB5NmbSD-33" target="R01BoFq2kM_QBB5NmbSD-18" edge="1"><mxGeometry x="-0.8187" relative="1" as="geometry"><mxPoint as="offset"/></mxGeometry></mxCell><mxCell id="R01BoFq2kM_QBB5NmbSD-38" value="create_shipment" style="edgeStyle=orthogonalEdgeStyle;rounded=0;orthogonalLoop=1;jettySize=auto;html=1;exitX=1;exitY=0.25;exitDx=0;exitDy=0;entryX=0;entryY=0.5;entryDx=0;entryDy=0;" parent="1" source="R01BoFq2kM_QBB5NmbSD-33" target="R01BoFq2kM_QBB5NmbSD-32" edge="1"><mxGeometry relative="1" as="geometry"/></mxCell><mxCell id="R01BoFq2kM_QBB5NmbSD-33" value="order_event_consumer" style="rounded=0;whiteSpace=wrap;html=1;" parent="1" vertex="1"><mxGeometry x="730" y="275" width="140" height="60" as="geometry"/></mxCell><mxCell id="R01BoFq2kM_QBB5NmbSD-42" value="shipment-service" style="text;html=1;strokeColor=none;fillColor=none;align=left;verticalAlign=bottom;whiteSpace=wrap;rounded=0;" parent="1" vertex="1"><mxGeometry x="730" y="70" width="110" height="30" as="geometry"/></mxCell><mxCell id="4" style="edgeStyle=orthogonalEdgeStyle;rounded=0;orthogonalLoop=1;jettySize=auto;html=1;exitX=1;exitY=0.5;exitDx=0;exitDy=0;" edge="1" parent="1" source="2" target="3"><mxGeometry relative="1" as="geometry"/></mxCell><mxCell id="2" value="payment-event" style="rounded=1;whiteSpace=wrap;html=1;arcSize=50;" vertex="1" parent="1"><mxGeometry x="540" y="340" width="120" height="30" as="geometry"/></mxCell><mxCell id="5" style="edgeStyle=orthogonalEdgeStyle;rounded=0;orthogonalLoop=1;jettySize=auto;html=1;exitX=1;exitY=0.5;exitDx=0;exitDy=0;entryX=0;entryY=0.5;entryDx=0;entryDy=0;entryPerimeter=0;" edge="1" parent="1" source="3" target="R01BoFq2kM_QBB5NmbSD-18"><mxGeometry relative="1" as="geometry"/></mxCell><mxCell id="6" value="persist" style="edgeLabel;html=1;align=center;verticalAlign=middle;resizable=0;points=[];" vertex="1" connectable="0" parent="5"><mxGeometry x="-0.8232" y="2" relative="1" as="geometry"><mxPoint as="offset"/></mxGeometry></mxCell><mxCell id="3" value="payment_event_consumer" style="rounded=0;whiteSpace=wrap;html=1;" vertex="1" parent="1"><mxGeometry x="730" y="340" width="140" height="60" as="geometry"/></mxCell></root></mxGraphModel></diagram></mxfile>